<svg version="1.1" id="Layer_1" xmlns="http://www.w3.org/2000/svg" xmlns:xlink="http://www.w3.org/1999/xlink" x="0px" y="0px"
	 width="100%" viewBox="0 0 297 224" enable-background="new 0 0 297 224" xml:space="preserve">
<path fill="#FEFFFF" opacity="1.000000" stroke="none" 
	d="
M169.000000,225.000000 
	C112.666672,225.000000 56.833347,225.000000 1.000015,225.000000 
	C1.000010,150.333344 1.000010,75.666695 1.000005,1.000035 
	C99.999969,1.000023 198.999939,1.000023 297.999939,1.000012 
	C297.999939,75.666634 297.999939,150.333267 297.999969,224.999939 
	C255.166672,225.000000 212.333328,225.000000 169.000000,225.000000 
M149.759094,173.205902 
	C145.476746,172.580917 142.965637,175.082382 140.363495,178.607544 
	C140.201385,178.717606 140.039276,178.827652 139.410690,178.957489 
	C139.410690,178.957489 138.949982,179.033218 138.293488,178.937057 
	C137.853699,178.890381 137.413895,178.843689 137.022095,178.035431 
	C136.158890,177.074234 135.295685,176.113052 134.432480,175.151855 
	C133.948044,176.236130 133.337204,177.282822 133.001663,178.411362 
	C131.733902,182.675247 134.297562,188.186035 128.066147,190.931702 
	C127.130234,189.777359 125.658066,188.744934 125.362480,187.444992 
	C124.585396,184.027481 124.320358,180.493546 123.765717,176.317230 
	C122.059563,175.315140 120.353409,174.313049 118.487396,172.623474 
	C111.595055,170.798447 106.885368,173.410446 108.130714,178.880875 
	C110.967033,175.120392 114.372177,173.408600 118.830353,175.981827 
	C118.897568,176.691681 118.964783,177.401550 118.361618,178.356140 
	C115.569344,179.002808 112.591087,179.237350 110.028809,180.393661 
	C106.281189,182.084930 104.653587,185.397980 105.950714,189.450684 
	C107.278900,193.600449 110.719887,193.432037 114.186394,192.806320 
	C115.794235,192.516098 117.406128,192.248337 119.648842,192.501556 
	C122.407837,192.650787 125.166832,192.800018 128.706635,193.014099 
	C131.500336,192.660034 134.294052,192.305954 137.907822,192.006470 
	C139.886642,192.148911 141.223541,192.230209 140.750961,189.233765 
	C140.295319,186.344666 141.018677,183.269592 141.826462,179.979523 
	C144.223999,178.377563 146.621536,176.775604 149.725739,175.384827 
	C149.928833,174.815811 150.131927,174.246780 149.759094,173.205902 
M218.886841,176.253815 
	C216.071106,175.591141 213.277740,174.575165 210.431458,174.394943 
	C208.651825,174.282272 206.792465,175.428864 205.005203,175.340057 
	C203.845413,174.094666 202.685623,172.849274 201.307114,170.899536 
	C194.839447,154.455597 184.387619,141.841751 167.004852,136.384964 
	C159.082275,133.897919 150.950424,132.003769 142.824829,130.251877 
	C123.568100,126.100105 105.451462,119.430618 89.665993,107.290405 
	C89.214096,106.942863 88.587204,106.822861 87.691727,106.451553 
	C87.759926,107.539482 87.698357,108.206451 87.856995,108.816124 
	C88.778435,112.357628 89.660118,115.913437 90.722214,119.413742 
	C97.644531,142.227295 113.346832,154.356247 136.745255,156.902313 
	C145.678741,157.874405 154.654999,158.446625 163.599930,159.321991 
	C176.864685,160.620071 189.641418,163.314026 199.783005,173.548309 
	C198.785385,174.715210 197.787766,175.882111 197.755737,175.919571 
	C198.325027,179.307358 199.349075,182.136414 199.110657,184.854736 
	C198.845505,187.878006 197.430206,190.800415 196.643021,193.353500 
	C200.555023,193.353500 204.508987,193.353500 209.016129,193.353500 
	C204.914078,188.702515 204.426514,183.861298 207.718277,178.731903 
	C210.978500,176.436676 214.319885,175.654846 217.909409,179.039276 
	C217.206833,183.325180 216.504257,187.611084 215.782532,192.013794 
	C216.690903,192.096878 218.563629,192.268158 219.495377,192.353363 
	C219.764297,189.272537 220.234970,186.603424 220.157272,183.950348 
	C220.089203,181.625427 219.405472,179.318527 218.886841,176.253815 
M183.416519,192.132370 
	C184.954956,192.394501 186.493393,192.656631 188.873734,193.016418 
	C190.821609,192.823547 192.769501,192.630676 194.717377,192.437805 
	C194.924545,192.056671 195.131699,191.675552 195.338852,191.294434 
	C190.426926,190.720276 191.451996,187.680405 191.422913,184.720123 
	C191.394562,181.831696 190.994720,178.699738 189.795609,176.122482 
	C187.448303,171.077484 180.029709,170.319000 175.088608,175.007080 
	C177.368332,174.783768 178.874695,174.663223 180.373962,174.483383 
	C183.011017,174.166992 184.585938,175.000351 183.411972,177.973480 
	C179.551834,177.694366 176.297287,178.779266 173.639389,182.700317 
	C170.431885,184.401123 170.262650,187.517273 171.841690,189.775162 
	C173.051971,191.505768 175.908920,192.407944 178.204269,192.935150 
	C179.578323,193.250732 181.281067,192.135315 183.416519,192.132370 
M111.639214,100.854790 
	C117.583672,109.469917 126.058502,114.623825 135.739944,117.786362 
	C144.596161,120.679321 153.615860,123.084274 162.602875,125.561508 
	C177.130798,129.566086 189.806686,136.347168 198.678467,149.026215 
	C198.897797,149.339676 199.411179,149.447372 200.378174,149.970810 
	C198.149689,135.229614 194.379349,121.868607 184.368469,110.922119 
	C174.868103,100.533836 162.354141,95.614265 149.521271,91.268906 
	C132.904617,85.642303 116.397316,79.871819 103.453697,67.225647 
	C103.295219,67.070808 102.853027,67.206352 101.928261,67.206352 
	C102.455925,79.030930 104.741554,90.201729 111.639214,100.854790 
M142.979004,71.472328 
	C148.630722,75.794754 153.964767,80.635422 159.998779,84.334152 
	C173.497787,92.608757 188.973969,98.289047 196.755508,115.358238 
	C196.930664,113.327408 197.032425,112.752678 197.022079,112.179977 
	C196.647308,91.392326 188.711227,74.428741 171.610016,62.147491 
	C161.895218,55.170803 152.054291,48.366695 142.437744,41.258186 
	C139.690109,39.227146 137.528503,36.403316 134.669556,33.509129 
	C132.221832,48.987438 134.646835,60.028183 142.979004,71.472328 
M153.205185,186.567566 
	C154.451080,183.058823 155.696991,179.550095 156.794632,176.458893 
	C155.317749,176.458893 153.244049,176.458893 151.097473,176.458893 
	C149.909378,181.213898 153.149872,187.300095 147.383636,191.910431 
	C150.145233,191.910431 152.483047,191.910431 154.958389,191.910431 
	C154.176163,189.962524 153.651871,188.656906 153.205185,186.567566 
M163.827667,187.609833 
	C162.704895,188.674377 161.582138,189.738922 159.857788,191.373840 
	C163.239563,191.373840 165.977905,191.373840 170.013000,191.373840 
	C165.135483,188.258255 165.774658,184.901428 166.754395,181.050995 
	C167.231476,179.175980 166.459717,176.238266 165.130798,174.879089 
	C164.023087,173.746140 161.277756,174.214340 159.257736,173.973389 
	C158.971634,174.492447 158.685532,175.011505 158.399429,175.530548 
	C165.816010,175.187393 164.438446,179.796127 164.143127,183.801193 
	C164.070023,184.792618 164.027374,185.786285 163.827667,187.609833 
z"/>
<path fill="#07A0AF" opacity="1.000000" stroke="none" 
	d="
M111.421280,100.566345 
	C104.741554,90.201729 102.455925,79.030930 101.928261,67.206352 
	C102.853027,67.206352 103.295219,67.070808 103.453697,67.225647 
	C116.397316,79.871819 132.904617,85.642303 149.521271,91.268906 
	C162.354141,95.614265 174.868103,100.533836 184.368469,110.922119 
	C194.379349,121.868607 198.149689,135.229614 200.378174,149.970810 
	C199.411179,149.447372 198.897797,149.339676 198.678467,149.026215 
	C189.806686,136.347168 177.130798,129.566086 162.602875,125.561508 
	C153.615860,123.084274 144.596161,120.679321 135.739944,117.786362 
	C126.058502,114.623825 117.583672,109.469917 111.421280,100.566345 
z"/>
<path fill="#07898E" opacity="1.000000" stroke="none" 
	d="
M199.902985,172.760468 
	C189.641418,163.314026 176.864685,160.620071 163.599930,159.321991 
	C154.654999,158.446625 145.678741,157.874405 136.745255,156.902313 
	C113.346832,154.356247 97.644531,142.227295 90.722214,119.413742 
	C89.660118,115.913437 88.778435,112.357628 87.856995,108.816124 
	C87.698357,108.206451 87.759926,107.539482 87.691727,106.451553 
	C88.587204,106.822861 89.214096,106.942863 89.665993,107.290405 
	C105.451462,119.430618 123.568100,126.100105 142.824829,130.251877 
	C150.950424,132.003769 159.082275,133.897919 167.004852,136.384964 
	C184.387619,141.841751 194.839447,154.455597 201.229782,171.431854 
	C200.735962,172.229614 200.319473,172.495041 199.902985,172.760468 
z"/>
<path fill="#7FC0D6" opacity="1.000000" stroke="none" 
	d="
M142.733627,71.211494 
	C134.646835,60.028183 132.221832,48.987438 134.669556,33.509129 
	C137.528503,36.403316 139.690109,39.227146 142.437744,41.258186 
	C152.054291,48.366695 161.895218,55.170803 171.610016,62.147491 
	C188.711227,74.428741 196.647308,91.392326 197.022079,112.179977 
	C197.032425,112.752678 196.930664,113.327408 196.755508,115.358238 
	C188.973969,98.289047 173.497787,92.608757 159.998779,84.334152 
	C153.964767,80.635422 148.630722,75.794754 142.733627,71.211494 
z"/>
<path fill="#3FB5C1" opacity="1.000000" stroke="none" 
	d="
M199.842987,173.154388 
	C200.319473,172.495041 200.735962,172.229614 201.339142,171.784027 
	C202.685623,172.849274 203.845413,174.094666 204.765747,175.867310 
	C205.361099,177.275848 206.195938,178.157166 207.030762,179.038467 
	C204.426514,183.861298 204.914078,188.702515 209.016129,193.353500 
	C204.508987,193.353500 200.555023,193.353500 196.643021,193.353500 
	C197.430206,190.800415 198.845505,187.878006 199.110657,184.854736 
	C199.349075,182.136414 198.325027,179.307358 197.755737,175.919571 
	C197.787766,175.882111 198.785385,174.715210 199.842987,173.154388 
z"/>
<path fill="#4FBBC7" opacity="1.000000" stroke="none" 
	d="
M184.273697,177.966812 
	C184.585938,175.000351 183.011017,174.166992 180.373962,174.483383 
	C178.874695,174.663223 177.368332,174.783768 175.088608,175.007080 
	C180.029709,170.319000 187.448303,171.077484 189.795609,176.122482 
	C190.994720,178.699738 191.394562,181.831696 191.422913,184.720123 
	C191.451996,187.680405 190.426926,190.720276 195.338852,191.294434 
	C195.131699,191.675552 194.924545,192.056671 194.717377,192.437805 
	C192.769501,192.630676 190.821609,192.823547 188.577255,192.579269 
	C189.221024,187.009705 189.998642,181.886932 187.365723,176.944611 
	C186.825974,179.712830 186.957703,182.480392 186.726288,185.217270 
	C186.673477,185.841858 185.366547,186.360397 184.683640,186.537354 
	C184.578201,183.420258 184.425949,180.693527 184.273697,177.966812 
z"/>
<path fill="#EAF7F8" opacity="1.000000" stroke="none" 
	d="
M183.842834,177.970154 
	C184.425949,180.693527 184.578201,183.420258 184.422028,186.604065 
	C183.715958,187.614471 183.318314,188.167801 182.571457,188.842896 
	C179.764481,189.271729 177.306732,189.578812 174.848969,189.885895 
	C175.018433,187.653702 175.246521,185.422775 175.295425,183.187943 
	C175.302933,182.844681 174.485031,182.483383 174.048874,182.130417 
	C176.297287,178.779266 179.551834,177.694366 183.842834,177.970154 
z"/>
<path fill="#CEECF0" opacity="1.000000" stroke="none" 
	d="
M137.087753,191.951874 
	C134.294052,192.305954 131.500336,192.660034 128.446808,192.755920 
	C128.406143,192.026291 128.625305,191.554855 128.844482,191.083420 
	C134.297562,188.186035 131.733902,182.675247 133.001663,178.411362 
	C133.337204,177.282822 133.948044,176.236130 134.432480,175.151855 
	C135.295685,176.113052 136.158890,177.074234 136.992157,178.853271 
	C137.004074,183.764709 137.045914,187.858292 137.087753,191.951874 
z"/>
<path fill="#62C3CD" opacity="1.000000" stroke="none" 
	d="
M119.016182,191.970383 
	C117.406128,192.248337 115.794235,192.516098 114.186394,192.806320 
	C110.719887,193.432037 107.278900,193.600449 105.950714,189.450684 
	C104.653587,185.397980 106.281189,182.084930 110.028809,180.393661 
	C112.591087,179.237350 115.569344,179.002808 118.587540,178.533783 
	C118.530052,179.500458 118.246651,180.289505 117.563889,181.065704 
	C116.345993,181.076706 115.309677,180.787613 114.747040,181.179184 
	C112.444984,182.781265 110.146957,184.452499 108.190445,186.436523 
	C107.778618,186.854141 108.800163,189.717010 109.187820,189.722946 
	C111.604950,189.760086 114.029793,189.306732 116.451424,189.010513 
	C116.612602,188.990799 116.768303,188.926346 117.250435,188.953217 
	C118.450493,189.605545 119.326660,190.187363 119.956749,190.917938 
	C119.479179,191.367920 119.247681,191.669144 119.016182,191.970383 
z"/>
<path fill="#46B8C4" opacity="1.000000" stroke="none" 
	d="
M153.166382,186.959427 
	C153.651871,188.656906 154.176163,189.962524 154.958389,191.910431 
	C152.483047,191.910431 150.145233,191.910431 147.383636,191.910431 
	C153.149872,187.300095 149.909378,181.213898 151.097473,176.458893 
	C153.244049,176.458893 155.317749,176.458893 156.794632,176.458893 
	C155.696991,179.550095 154.451080,183.058823 153.166382,186.959427 
z"/>
<path fill="#57BECA" opacity="1.000000" stroke="none" 
	d="
M163.899200,187.194382 
	C164.027374,185.786285 164.070023,184.792618 164.143127,183.801193 
	C164.438446,179.796127 165.816010,175.187393 158.399429,175.530548 
	C158.685532,175.011505 158.971634,174.492447 159.257736,173.973389 
	C161.277756,174.214340 164.023087,173.746140 165.130798,174.879089 
	C166.459717,176.238266 167.231476,179.175980 166.754395,181.050995 
	C165.774658,184.901428 165.135483,188.258255 170.013000,191.373840 
	C165.977905,191.373840 163.239563,191.373840 159.857788,191.373840 
	C161.582138,189.738922 162.704895,188.674377 163.899200,187.194382 
z"/>
<path fill="#69C5CF" opacity="1.000000" stroke="none" 
	d="
M173.844131,182.415375 
	C174.485031,182.483383 175.302933,182.844681 175.295425,183.187943 
	C175.246521,185.422775 175.018433,187.653702 174.848969,189.885895 
	C177.306732,189.578812 179.764481,189.271729 182.878418,189.012848 
	C184.598709,189.636063 185.662811,190.211105 187.254211,191.071106 
	C185.330276,191.328888 184.083176,191.495987 182.836075,191.663086 
	C181.281067,192.135315 179.578323,193.250732 178.204269,192.935150 
	C175.908920,192.407944 173.051971,191.505768 171.841690,189.775162 
	C170.262650,187.517273 170.431885,184.401123 173.844131,182.415375 
z"/>
<path fill="#C3E8EC" opacity="1.000000" stroke="none" 
	d="
M183.126297,191.897736 
	C184.083176,191.495987 185.330276,191.328888 187.254211,191.071106 
	C185.662811,190.211105 184.598709,189.636063 183.227631,188.891083 
	C183.318314,188.167801 183.715958,187.614471 184.375214,186.994446 
	C185.366547,186.360397 186.673477,185.841858 186.726288,185.217270 
	C186.957703,182.480392 186.825974,179.712830 187.365723,176.944611 
	C189.998642,181.886932 189.221024,187.009705 188.156311,192.530441 
	C186.493393,192.656631 184.954956,192.394501 183.126297,191.897736 
z"/>
<path fill="#67C5CF" opacity="1.000000" stroke="none" 
	d="
M207.374512,178.885193 
	C206.195938,178.157166 205.361099,177.275848 204.747574,176.202484 
	C206.792465,175.428864 208.651825,174.282272 210.431458,174.394943 
	C213.277740,174.575165 216.071106,175.591141 218.680298,176.748901 
	C218.262207,177.559021 218.050659,177.874054 217.839111,178.189102 
	C214.319885,175.654846 210.978500,176.436676 207.374512,178.885193 
z"/>
<path fill="#35B1BF" opacity="1.000000" stroke="none" 
	d="
M217.874268,178.614197 
	C218.050659,177.874054 218.262207,177.559021 218.733719,177.123840 
	C219.405472,179.318527 220.089203,181.625427 220.157272,183.950348 
	C220.234970,186.603424 219.764297,189.272537 219.495377,192.353363 
	C218.563629,192.268158 216.690903,192.096878 215.782532,192.013794 
	C216.504257,187.611084 217.206833,183.325180 217.874268,178.614197 
z"/>
<path fill="#62C3CD" opacity="1.000000" stroke="none" 
	d="
M118.821510,175.273239 
	C114.372177,173.408600 110.967033,175.120392 108.130714,178.880875 
	C106.885368,173.410446 111.595055,170.798447 118.644203,173.457550 
	C118.807846,174.618835 118.814682,174.946045 118.821510,175.273239 
z"/>
<path fill="#3CB4C1" opacity="1.000000" stroke="none" 
	d="
M119.332512,192.235962 
	C119.247681,191.669144 119.479179,191.367920 120.327667,191.000214 
	C121.663620,190.269638 122.985443,189.620346 123.002190,188.938980 
	C123.099449,184.982483 122.889694,181.018448 123.050568,177.042450 
	C123.495377,177.020615 123.673363,177.013290 123.851341,177.005981 
	C124.320358,180.493546 124.585396,184.027481 125.362480,187.444992 
	C125.658066,188.744934 127.130234,189.777359 128.455322,191.007568 
	C128.625305,191.554855 128.406143,192.026291 128.056396,192.723480 
	C125.166832,192.800018 122.407837,192.650787 119.332512,192.235962 
z"/>
<path fill="#38B3C0" opacity="1.000000" stroke="none" 
	d="
M137.497787,191.979187 
	C137.045914,187.858292 137.004074,183.764709 136.968170,179.234055 
	C137.413895,178.843689 137.853699,178.890381 138.712448,179.183487 
	C139.379990,179.265839 139.628571,179.101776 139.877167,178.937714 
	C140.039276,178.827652 140.201385,178.717606 140.691193,178.939774 
	C141.087280,179.606750 141.155670,179.941483 141.224075,180.276230 
	C141.018677,183.269592 140.295319,186.344666 140.750961,189.233765 
	C141.223541,192.230209 139.886642,192.148911 137.497787,191.979187 
z"/>
<path fill="#3FB5C2" opacity="1.000000" stroke="none" 
	d="
M123.808533,176.661606 
	C123.673363,177.013290 123.495377,177.020615 122.822037,176.887451 
	C122.077812,176.544815 121.842163,176.321182 121.571411,176.154633 
	C121.497353,176.109085 121.205215,176.230164 121.203049,176.282608 
	C121.104309,178.675827 121.240417,181.104614 120.859818,183.449844 
	C120.658363,184.691193 119.562622,185.787430 118.903244,186.563660 
	C118.611671,184.478271 118.287460,182.778412 117.963249,181.078552 
	C118.246651,180.289505 118.530052,179.500458 118.922722,178.411407 
	C118.964783,177.401550 118.897568,176.691681 118.825928,175.627533 
	C118.814682,174.946045 118.807846,174.618835 118.724129,173.801300 
	C120.353409,174.313049 122.059563,175.315140 123.808533,176.661606 
z"/>
<path fill="#70C8D2" opacity="1.000000" stroke="none" 
	d="
M141.525269,180.127869 
	C141.155670,179.941483 141.087280,179.606750 140.928284,178.766083 
	C142.965637,175.082382 145.476746,172.580917 149.760406,173.631454 
	C149.514175,174.429214 149.266617,174.801422 149.019058,175.173645 
	C146.621536,176.775604 144.223999,178.377563 141.525269,180.127869 
z"/>
<path fill="#46B8C4" opacity="1.000000" stroke="none" 
	d="
M149.372406,175.279236 
	C149.266617,174.801422 149.514175,174.429214 150.048370,173.867386 
	C150.131927,174.246780 149.928833,174.815811 149.372406,175.279236 
z"/>
<path fill="#CEECF0" opacity="1.000000" stroke="none" 
	d="
M139.643921,178.947601 
	C139.628571,179.101776 139.379990,179.265839 139.040695,179.231567 
	C138.949982,179.033218 139.410690,178.957489 139.643921,178.947601 
z"/>
<path fill="#F1FAFB" opacity="1.000000" stroke="none" 
	d="
M117.563889,181.065704 
	C118.287460,182.778412 118.611671,184.478271 118.614677,186.644012 
	C117.837830,187.700836 117.382187,188.291763 116.926544,188.882690 
	C116.768303,188.926346 116.612602,188.990799 116.451424,189.010513 
	C114.029793,189.306732 111.604950,189.760086 109.187820,189.722946 
	C108.800163,189.717010 107.778618,186.854141 108.190445,186.436523 
	C110.146957,184.452499 112.444984,182.781265 114.747040,181.179184 
	C115.309677,180.787613 116.345993,181.076706 117.563889,181.065704 
z"/>
<path fill="#B3E2E7" opacity="1.000000" stroke="none" 
	d="
M117.250435,188.953217 
	C117.382187,188.291763 117.837830,187.700836 118.582039,187.029541 
	C119.562622,185.787430 120.658363,184.691193 120.859818,183.449844 
	C121.240417,181.104614 121.104309,178.675827 121.203049,176.282608 
	C121.205215,176.230164 121.497353,176.109085 121.571411,176.154633 
	C121.842163,176.321182 122.077812,176.544815 122.555222,176.901947 
	C122.889694,181.018448 123.099449,184.982483 123.002190,188.938980 
	C122.985443,189.620346 121.663620,190.269638 120.573730,190.851471 
	C119.326660,190.187363 118.450493,189.605545 117.250435,188.953217 
z"/>
</svg>